<svg width="37" height="16" viewBox="0 0 37 16" fill="none" xmlns="http://www.w3.org/2000/svg">
<path fillRule="evenodd" clipRule="evenodd" d="M36.9277 1.81817C36.9277 2.6215 36.2671 3.27274 35.4526 3.27274C34.6379 3.27274 33.9773 2.6215 33.9773 1.81817C33.9773 1.01488 34.6379 0.363647 35.4526 0.363647C36.2671 0.363647 36.9277 1.01488 36.9277 1.81817ZM28.9469 6.24567C28.8966 6.52008 28.8167 6.83649 28.7095 7.186C28.6019 7.53479 28.4642 7.90273 28.3015 8.27598C28.1245 8.65261 27.9414 9.00456 27.7575 9.322C27.5753 9.63594 27.3943 9.906 27.2197 10.1248C27.0495 10.3379 26.8919 10.4954 26.751 10.5932C26.6447 10.667 26.586 10.675 26.5657 10.675C26.5563 10.675 26.5486 10.6735 26.5405 10.6699C26.5229 10.6623 26.4635 10.6226 26.4378 10.4351C26.4137 10.2634 26.4266 10.038 26.4758 9.76469C26.526 9.48302 26.6057 9.16402 26.713 8.81638C26.8196 8.46938 26.9572 8.10156 27.1223 7.72313C27.2859 7.34793 27.4648 6.99774 27.6543 6.68217C27.8434 6.36692 28.0275 6.09973 28.2016 5.88766C28.3707 5.6807 28.5288 5.5255 28.6713 5.42643C28.7779 5.35252 28.8365 5.34455 28.8568 5.34455C28.8662 5.34455 28.8742 5.3461 28.8813 5.34929C28.8988 5.35695 28.9581 5.39676 28.9845 5.58433C29.0083 5.7562 28.9956 5.97868 28.9469 6.24567ZM21.8569 6.24571C21.8066 6.52024 21.7268 6.83665 21.6196 7.186C21.5115 7.53659 21.3736 7.90445 21.2116 8.27598C21.0343 8.65321 20.8512 9.00523 20.6677 9.322C20.4852 9.63614 20.3042 9.90624 20.1296 10.1248C19.9598 10.3378 19.8021 10.4953 19.6608 10.5933C19.5547 10.667 19.4961 10.675 19.4759 10.675C19.4663 10.675 19.4586 10.6735 19.4505 10.6699C19.433 10.6623 19.3737 10.6228 19.3478 10.435C19.3239 10.2642 19.3366 10.0387 19.3856 9.76469C19.4358 9.48397 19.5157 9.16501 19.6231 8.81638C19.7296 8.46922 19.8673 8.10136 20.0325 7.72309C20.1965 7.34697 20.3753 6.99678 20.5641 6.68221C20.7539 6.3666 20.938 6.09925 21.1114 5.88774C21.2814 5.68026 21.4395 5.52499 21.5814 5.42639C21.6878 5.35252 21.7466 5.34455 21.7669 5.34455C21.7764 5.34455 21.7843 5.3461 21.7914 5.34929C21.809 5.35695 21.8685 5.39676 21.8946 5.58433C21.9183 5.75572 21.9056 5.97828 21.8569 6.24571ZM14.1748 6.17543C14.1437 6.45378 14.0831 6.77222 13.9948 7.12177C13.9063 7.47001 13.7848 7.83695 13.6339 8.21242C13.4834 8.5861 13.323 8.93761 13.1571 9.25712C12.9945 9.56918 12.8301 9.83541 12.6683 10.0484C12.5106 10.2557 12.3625 10.4101 12.2278 10.5075C12.128 10.5798 12.0729 10.5876 12.0539 10.5876C12.0452 10.5876 12.0378 10.5861 12.0297 10.5825C12.0115 10.5746 11.9492 10.5338 11.9168 10.3434C11.8864 10.1692 11.8836 9.9443 11.9082 9.67492C11.9332 9.40095 11.9905 9.0863 12.0784 8.73966C12.1663 8.3927 12.2878 8.0258 12.4394 7.64905C12.592 7.27054 12.7524 6.91908 12.9165 6.60411C13.0783 6.29229 13.2429 6.02279 13.406 5.80322C13.5629 5.59144 13.7109 5.43461 13.8454 5.33705C13.9451 5.26498 14.0003 5.25716 14.0195 5.25716C14.0285 5.25716 14.0358 5.25864 14.0429 5.26171C14.0619 5.27008 14.1272 5.31244 14.167 5.5054C14.2027 5.67679 14.2053 5.90222 14.1748 6.17543ZM36.031 8.26335C35.954 8.14484 35.8054 8.06822 35.6525 8.06822C35.5074 8.06822 35.3772 8.13551 35.2953 8.25302C35.2014 8.38755 35.0856 8.54732 34.951 8.72779C34.8034 8.92576 34.6439 9.11561 34.4773 9.29191C34.3117 9.46742 34.1504 9.62002 33.9975 9.74546C33.8396 9.87526 33.7374 9.9025 33.6796 9.9025C33.639 9.9025 33.5637 9.9025 33.5466 9.70517C33.5289 9.49854 33.5598 9.22983 33.6386 8.9065C33.719 8.57427 33.8356 8.20552 33.9851 7.81041C34.1374 7.40829 34.2904 7.02424 34.4395 6.66894C34.5944 6.29963 34.7276 5.9926 34.8463 5.7303C34.9647 5.4692 35.0389 5.2993 35.0672 5.22501C35.1619 5.00989 35.1273 4.7979 34.9671 4.61162C34.82 4.44088 34.6232 4.32125 34.3824 4.25592C34.1471 4.19212 33.8907 4.18844 33.6233 4.24491C33.3371 4.30555 33.1101 4.46952 32.9488 4.73194C32.8067 4.96231 32.6218 5.32426 32.3992 5.80768C32.1758 6.29222 31.96 6.83023 31.7578 7.40669C31.635 7.7563 31.5218 8.11176 31.4193 8.46954C31.2488 9.0647 30.898 9.59366 30.4144 9.98504C30.2412 10.1252 30.059 10.2573 29.8696 10.38C29.7858 10.4344 29.7014 10.4847 29.6168 10.5308C29.59 10.5454 29.5621 10.5134 29.5806 10.4894C29.7267 10.2988 29.8705 10.0929 30.0107 9.87274C30.2997 9.4196 30.563 8.87686 30.7933 8.25975C31.0368 7.60631 31.1896 7.01034 31.2474 6.48811C31.3056 5.95951 31.2854 5.49824 31.1869 5.11711C31.0851 4.72365 30.9071 4.41409 30.6574 4.19701C30.399 3.97276 30.0796 3.85901 29.7083 3.85901C29.2705 3.85901 28.8681 3.97376 28.5123 4.20009C28.2693 4.35465 28.0441 4.52735 27.8401 4.71568C27.8231 4.7313 27.8092 4.72941 27.7968 4.71011C27.7515 4.63862 27.6904 4.57125 27.6137 4.50825C27.4411 4.36703 27.2334 4.27243 26.9961 4.22717C26.7579 4.18239 26.516 4.19861 26.2801 4.27531C26.0277 4.35738 25.8395 4.52707 25.7205 4.7798C25.4923 5.26666 25.2514 5.83491 25.0042 6.46873C24.7577 7.10162 24.5174 7.76319 24.2895 8.43513L24.2141 8.65878C24.0218 9.2318 23.6606 9.73468 23.1769 10.1025C23.0494 10.1995 22.9175 10.2922 22.782 10.38C22.6982 10.4344 22.6138 10.4847 22.5291 10.5309C22.5023 10.5454 22.4744 10.5135 22.4929 10.4894C22.639 10.2989 22.7827 10.093 22.9229 9.87282C23.2118 9.42 23.4752 8.87734 23.7058 8.25975C23.9492 7.60627 24.102 7.01026 24.1598 6.48811C24.2181 5.95927 24.1979 5.498 24.0994 5.11711C23.9977 4.72381 23.8197 4.41425 23.5699 4.19701C23.3114 3.97272 22.992 3.85901 22.621 3.85901C22.1828 3.85901 21.7804 3.97376 21.4248 4.20001C21.1816 4.35465 20.9564 4.52735 20.7525 4.71556C20.7356 4.73114 20.7217 4.72937 20.7094 4.70995C20.664 4.63858 20.6029 4.57121 20.526 4.50833C20.3536 4.36707 20.1458 4.27251 19.9083 4.22717C19.6701 4.18231 19.428 4.19861 19.1926 4.27531C18.9406 4.35721 18.7521 4.52687 18.6327 4.77988C18.4045 5.2675 18.1635 5.83571 17.9167 6.46877C17.6852 7.06353 17.4599 7.6808 17.2462 8.30557C17.085 8.77709 16.8436 9.1559 16.4834 9.50294C16.3904 9.5925 16.2997 9.67365 16.2121 9.74546C16.0541 9.87526 15.952 9.9025 15.8941 9.9025C15.8536 9.9025 15.7782 9.9025 15.7613 9.70504C15.7435 9.4989 15.7744 9.23027 15.8531 8.9065C15.9334 8.57443 16.0501 8.2056 16.1997 7.81041C16.3503 7.41242 16.5033 7.02833 16.654 6.66894C16.8062 6.3066 16.9432 5.99075 17.0609 5.7303C17.1816 5.46404 17.2538 5.29858 17.2814 5.22493C17.3766 5.00989 17.342 4.7979 17.1817 4.61162C17.0342 4.4406 16.8339 4.32077 16.5861 4.25552C16.3442 4.19204 16.0883 4.18852 15.8273 4.24511C15.548 4.30591 15.3245 4.46976 15.1634 4.73146C15.1312 4.78328 15.0976 4.84044 15.062 4.90388C15.0494 4.92655 15.0151 4.92146 15.0097 4.89615C14.9791 4.7532 14.9296 4.61811 14.862 4.49255C14.7606 4.30543 14.6107 4.15191 14.4162 4.03612C14.2187 3.91861 13.9679 3.85901 13.671 3.85901C12.9709 3.85901 12.2608 4.17903 11.5606 4.8102C10.8732 5.43003 10.3034 6.41874 9.8666 7.74981C9.66161 8.39164 9.54142 8.98484 9.50919 9.51316C9.47672 10.0478 9.52031 10.5092 9.63848 10.8844C9.76028 11.2712 9.95476 11.5766 10.2168 11.7918C10.487 12.0144 10.8117 12.1272 11.1817 12.1272C11.4555 12.1272 11.7167 12.0804 11.9582 11.9881C12.1922 11.8985 12.4091 11.7834 12.603 11.6461C12.7521 11.5405 12.891 11.421 13.0171 11.2896C13.1071 11.1959 13.2656 11.2338 13.3026 11.3576C13.3441 11.4964 13.4019 11.6199 13.4758 11.7274C13.6587 11.9927 13.9482 12.1272 14.3361 12.1272C14.7659 12.1272 15.2002 11.9676 15.6267 11.6528C15.8256 11.5062 16.0199 11.3464 16.2081 11.1745C16.2505 11.1358 16.3172 11.1772 16.3005 11.2318C16.1906 11.5938 16.0919 11.9292 16.0031 12.2439C15.8533 12.7729 15.7314 13.2286 15.6408 13.5983C15.5196 14.0942 15.5039 14.2291 15.5039 14.2912C15.5039 14.5952 15.5993 14.8544 15.7875 15.0617C15.9693 15.261 16.1799 15.404 16.4143 15.4868C16.5685 15.5411 16.719 15.5685 16.8614 15.5685C16.9402 15.5685 17.0179 15.56 17.0925 15.5434C17.2605 15.5057 17.4736 15.3948 17.5357 15.0803L17.5368 15.0742C17.5615 14.9086 17.6085 14.6842 17.6768 14.4072C17.7477 14.1197 17.8337 13.7925 17.9328 13.4345C18.0305 13.0785 18.1422 12.6819 18.2741 12.2221C18.335 12.0096 18.4004 11.7869 18.47 11.5556C18.4842 11.5085 18.5483 11.501 18.5731 11.5435C18.604 11.5964 18.6384 11.6481 18.6763 11.6983C18.8902 11.9821 19.2313 12.1264 19.6904 12.1272C19.7825 12.1313 19.8751 12.1334 19.9655 12.1334H19.9657C20.6407 12.1334 21.2747 12.0187 21.8499 11.7924C22.3995 11.5765 22.9031 11.3126 23.3516 11.0072C23.3956 10.9772 23.4532 11.0189 23.4377 11.0696C23.309 11.4897 23.1928 11.8829 23.0907 12.244C22.94 12.7768 22.8181 13.2324 22.7282 13.5984C22.6071 14.0951 22.5915 14.2296 22.5915 14.2912C22.5915 14.5952 22.6868 14.8542 22.8751 15.0617C23.0569 15.2611 23.2677 15.4042 23.5019 15.4868C23.6562 15.541 23.8064 15.5685 23.9488 15.5685C24.0276 15.5685 24.1055 15.56 24.1803 15.5434C24.3482 15.5057 24.5613 15.3948 24.6234 15.0803L24.6246 15.0741C24.6491 14.908 24.6964 14.6836 24.7646 14.4071C24.8353 14.1198 24.9212 13.7926 25.0203 13.4345C25.1186 13.0769 25.2304 12.6804 25.3619 12.2221C25.4229 12.0092 25.4883 11.7865 25.5576 11.5555C25.5717 11.5084 25.6359 11.5009 25.6607 11.5433C25.6916 11.5964 25.7262 11.648 25.7641 11.6982C25.9777 11.982 26.3189 12.1264 26.7781 12.1272C26.8703 12.1313 26.9627 12.1334 27.0533 12.1334H27.0533C27.7282 12.1334 28.3623 12.0187 28.9376 11.7924C29.5816 11.5395 30.1635 11.2211 30.6674 10.846C30.7531 10.7821 30.8367 10.7175 30.9179 10.6523C30.9552 10.6225 31.0108 10.6493 31.0099 10.6968L31.0096 10.7265L31.0095 10.7603C31.0095 11.1594 31.0941 11.4847 31.2613 11.7274C31.4442 11.9927 31.7337 12.1272 32.1216 12.1272C32.5506 12.1272 32.9877 11.9679 33.4206 11.6535C33.8322 11.355 34.2208 11.002 34.5758 10.6043C34.9259 10.2123 35.2335 9.82167 35.4904 9.44323C35.75 9.06014 35.9248 8.7982 36.0245 8.64236C36.1043 8.518 36.1065 8.37982 36.031 8.26335ZM4.38877 10.3979C4.44929 10.156 4.51814 9.90221 4.5942 9.64097C4.6114 9.58193 4.69879 9.58956 4.70511 9.65063C4.72597 9.85111 4.75221 10.0486 4.78317 10.2387C4.81797 10.454 4.85996 10.6673 4.9082 10.8728C4.95672 11.0787 5.01177 11.2787 5.07161 11.4676C5.13258 11.6598 5.20021 11.846 5.27221 12.0209C5.34511 12.198 5.42499 12.3697 5.50982 12.531C5.59445 12.6927 5.68653 12.8491 5.78374 12.996C5.88098 13.143 5.98548 13.2833 6.09432 13.4129C6.20487 13.5445 6.3215 13.6677 6.44154 13.7791C6.5413 13.8717 6.64613 13.9588 6.75294 14.0381C6.88528 14.1363 7.02438 14.2249 7.16629 14.3015C7.31067 14.3795 7.46146 14.4468 7.61388 14.5015C7.69307 14.5299 7.77229 14.555 7.84937 14.5759C7.92917 14.598 8.01063 14.6171 8.09185 14.6328C8.25538 14.6646 8.42438 14.6844 8.59404 14.6916C8.64345 14.6937 8.69282 14.6947 8.74227 14.6947C8.86455 14.6947 8.98986 14.6883 9.11489 14.6757C9.29063 14.6579 9.47018 14.6272 9.64872 14.5847C9.82738 14.5422 10.0105 14.4865 10.1931 14.4191C10.3758 14.3512 10.5617 14.2705 10.7452 14.1789C10.8403 14.1313 10.9342 14.0815 11.0238 14.031C11.2023 13.9307 11.3831 13.818 11.5614 13.6962C11.7486 13.5683 11.9406 13.4252 12.1317 13.2708C12.2108 13.2067 12.2903 13.1403 12.3695 13.072C12.5311 12.9328 12.559 12.6957 12.434 12.5239C12.3089 12.3521 12.0718 12.3017 11.8859 12.4074C11.8286 12.44 11.7712 12.471 11.7141 12.5002C11.5652 12.5769 11.414 12.644 11.2647 12.6995C11.1189 12.7538 10.9722 12.7981 10.8285 12.8313C10.6876 12.8638 10.5464 12.8864 10.4082 12.8984C10.2721 12.9103 10.1358 12.9121 10.0048 12.904C9.87375 12.8958 9.74357 12.8775 9.61789 12.8497C9.49213 12.8219 9.36702 12.7837 9.24629 12.7362C9.12386 12.6879 9.00357 12.6293 8.88901 12.5619C8.7712 12.4926 8.65615 12.4126 8.54686 12.324C8.43477 12.2332 8.32588 12.131 8.22296 12.0203C8.11712 11.9063 8.01562 11.7812 7.92126 11.6484C7.8241 11.512 7.73165 11.3636 7.64645 11.2074C7.55947 11.0481 7.47777 10.8764 7.40378 10.6969C7.3667 10.6075 7.33039 10.513 7.29587 10.4159C7.24167 10.2641 7.19124 10.1037 7.14601 9.93918C7.08771 9.72648 7.03651 9.50169 6.99388 9.27099C6.95055 9.0363 6.91497 8.7886 6.8882 8.53474C6.86483 8.31334 6.84795 8.0842 6.83765 7.8517C6.83627 7.82073 6.84714 7.8054 6.87724 7.79606C7.35091 7.64891 7.80739 7.46627 8.2366 7.2521C8.757 6.9921 9.21805 6.68208 9.60702 6.33082C9.99972 5.97664 10.3151 5.57297 10.5445 5.13085C10.7757 4.68474 10.8929 4.19196 10.8929 3.66637C10.8929 3.17851 10.7594 2.74274 10.4959 2.37116C10.2372 2.00589 9.89424 1.69534 9.47655 1.44808C9.0639 1.20369 8.58889 1.01782 8.06467 0.89558C7.54479 0.774542 7.0114 0.713184 6.47935 0.713184C5.54524 0.713184 4.70126 0.86572 3.97104 1.1666C3.2454 1.46568 2.63063 1.83083 2.14374 2.2516C1.65611 2.67295 1.27968 3.11891 1.02479 3.57695C0.763452 4.04701 0.636353 4.436 0.636353 4.76614C0.636353 5.14434 0.726211 5.45101 0.903533 5.67744C1.07968 5.90263 1.27676 6.05637 1.48958 6.13449C1.71079 6.21581 1.92605 6.22487 2.12154 6.16223C2.34451 6.09106 2.46731 5.92571 2.46731 5.69664C2.46731 5.37732 2.56321 4.99333 2.75201 4.55524C2.94264 4.11336 3.21404 3.68725 3.55846 3.28877C3.90082 2.8922 4.31996 2.55056 4.80442 2.27311C5.27704 2.00217 5.81481 1.86481 6.40304 1.86481C6.9553 1.86481 7.39282 1.99415 7.70337 2.24936C8.01014 2.50162 8.16576 2.91 8.16576 3.46306C8.16576 3.8932 8.07696 4.30159 7.90183 4.67696C7.72483 5.05648 7.48941 5.40566 7.20227 5.71489C6.91416 6.02487 6.58479 6.298 6.22309 6.52659C6.00252 6.66603 5.7766 6.78811 5.54804 6.89174C5.5024 6.91238 5.45404 6.86886 5.47092 6.82236C5.64223 6.34914 5.82414 5.86279 6.01367 5.37109C6.24783 4.76402 6.51006 4.14043 6.79436 3.51527C6.90568 3.27024 6.76292 2.98601 6.49749 2.92441C6.0568 2.82206 5.53647 2.80521 4.93664 2.87375C4.67169 2.90401 4.44199 3.06821 4.33075 3.30669C3.99116 4.03472 3.6785 4.77305 3.39927 5.50666C3.07465 6.36036 2.79161 7.16236 2.55818 7.89055C2.32288 8.62412 2.13919 9.27383 2.01221 9.82141C1.88163 10.3829 1.81814 10.7772 1.81814 11.0266C1.81814 11.333 1.92536 11.5934 2.1366 11.8003C2.33793 11.9975 2.56832 12.1386 2.82134 12.2199C3.07822 12.302 3.32739 12.3207 3.55931 12.2757C3.82864 12.2235 3.99733 12.0635 4.04771 11.8098C4.07238 11.6669 4.11643 11.4711 4.17895 11.2278C4.24232 10.9794 4.31254 10.7027 4.38877 10.3979Z" fill="#FF441F"/>
</svg>
